<svg width="1920" height="743" viewBox="0 0 1920 743" fill="none" xmlns="http://www.w3.org/2000/svg">
<path d="M1317.04 273.401C1317.41 269.486 1317.78 263.606 1316.28 259.803C1314.77 255.994 1311.39 254.25 1307.44 252.18C1303.51 250.109 1299 247.713 1298.81 242.706C1298.62 237.706 1302.73 230.096 1307.6 219.985C1312.48 209.875 1318.09 197.26 1320.34 189.322C1322.58 181.39 1321.45 178.124 1320.42 177.797C1319.39 177.471 1318.46 180.079 1316.01 181.817C1313.58 183.556 1309.63 184.419 1310.39 185.179C1311.14 185.945 1316.58 186.601 1319.11 184.212C1321.65 181.823 1321.27 176.382 1319.29 171.489C1317.31 166.589 1313.75 162.236 1311.96 158.866C1310.17 155.491 1310.17 153.093 1310.63 145.702C1311.09 138.304 1312.02 125.907 1315.58 114.488C1319.13 103.075 1325.32 92.6351 1332.16 86.7682C1339.01 80.9013 1346.51 79.6077 1345.2 80.7992C1343.88 81.9968 1333.75 85.6856 1326.53 91.769C1319.32 97.8524 1315.01 106.33 1313.13 107.521C1311.25 108.718 1311.82 102.628 1315.46 90.9986C1319.11 79.3631 1325.85 62.1823 1345.73 47.0871C1365.6 31.9859 1398.62 18.9643 1429.11 16.1697C1459.6 13.375 1487.57 20.7952 1504.56 28.861C1521.55 36.9267 1527.56 45.6381 1535.36 57.0682C1543.16 68.4924 1552.74 82.6415 1562.53 117.677C1572.32 152.707 1582.32 208.623 1592.59 247.793C1602.85 286.962 1613.37 309.371 1629.54 337.666C1645.7 365.967 1667.51 400.141 1673.89 411.239C1680.29 422.342 1671.27 410.369 1660.65 397.086C1650.04 383.81 1637.83 369.218 1626.46 359.315C1615.1 349.405 1604.59 344.171 1595.39 339.595C1586.19 335.014 1578.3 331.09 1572.2 326.517C1566.1 321.944 1561.78 316.717 1559.98 306.709C1558.2 296.7 1558.93 281.905 1560.71 276.473C1562.49 271.035 1565.31 274.959 1566.25 284.744C1567.2 294.534 1566.28 310.197 1563.1 328.683C1559.93 347.175 1554.51 368.483 1548.15 395.671C1541.8 422.853 1534.51 455.914 1525.62 489.19C1516.75 522.46 1506.27 555.945 1497.94 584.221C1489.62 612.491 1483.45 635.541 1481.02 654.901C1478.61 674.261 1484.21 685.834 1481.02 685.62C1477.83 685.4 1465.84 673.38 1458.98 656.945C1452.11 640.515 1446.09 623.761 1442.42 602.329C1438.73 580.902 1437.4 554.791 1439.61 512.592C1441.83 470.393 1447.59 412.101 1450.64 361.089C1453.69 310.083 1454.02 266.359 1449.76 223.286C1445.49 180.207 1436.63 137.78 1425.54 112.424C1414.44 87.0743 1401.11 78.7892 1387.88 75.6251C1374.65 72.4549 1361.51 74.3996 1359.55 79.6208C1357.58 84.836 1366.79 93.3277 1373.83 105.082C1380.88 116.837 1385.78 131.855 1391.61 146C1397.43 160.145 1404.21 173.424 1411.44 183.763C1418.67 194.102 1426.37 201.502 1431.63 208.905C1436.9 216.309 1439.72 223.709 1442.82 232.52C1445.93 241.337 1449.31 251.564 1450.64 259.397C1451.96 267.224 1451.21 272.663 1446.9 280.707C1442.59 288.752 1434.72 299.407 1422.06 308.859C1409.41 318.304 1391.96 326.552 1377.52 331.429C1363.07 336.312 1351.62 337.825 1344.02 336.619C1336.42 335.412 1332.67 331.498 1330.78 326.816C1328.91 322.139 1328.9 316.699 1328.8 312.457C1328.71 308.216 1328.52 305.167 1327.48 302.992C1326.45 300.816 1324.57 299.513 1323.35 297.222C1322.12 294.938 1321.56 291.678 1321 288.629C1320.43 285.586 1319.86 282.76 1320.61 284.93C1321.37 287.105 1323.44 294.288 1324.94 302.013C1326.46 309.738 1327.4 318.004 1327.31 327.035C1327.23 336.059 1326.11 345.848 1325.37 355.745C1324.63 365.643 1324.26 375.649 1328.88 396.317C1333.5 416.986 1343.1 448.323 1343.69 483.452C1344.28 518.587 1335.88 557.52 1335.35 592.431C1334.82 627.342 1342.17 658.242 1344.33 668.691C1346.5 679.127 1343.49 669.118 1343.1 658.135C1342.72 647.152 1344.95 635.19 1349.91 621.056C1354.88 606.921 1362.55 590.609 1368.83 575.392C1375.1 560.168 1379.97 546.034 1385.02 529.616C1390.07 513.199 1395.31 494.492 1399.14 478.182C1402.97 461.872 1405.39 447.952 1406.51 437.181C1407.62 426.417 1407.44 418.801 1406.86 408.361C1406.29 397.92 1405.33 384.647 1403.45 373.44C1401.56 362.238 1398.74 353.102 1396.2 346.136C1393.66 339.169 1391.41 334.383 1393.37 337.211C1395.35 340.038 1401.55 350.491 1407.01 362.786C1412.46 375.081 1417.17 389.231 1420.27 401.416C1423.38 413.6 1424.89 423.819 1424.9 437.308C1424.91 450.797 1423.43 467.549 1420.72 483.861C1418.02 500.172 1414.09 516.049 1396.01 547.574C1377.93 579.1 1345.7 626.268 1325.55 656.918C1305.41 687.574 1297.36 701.706 1291.74 711.273C1286.11 720.84 1282.92 725.831 1280.96 725.726C1278.99 725.616 2.28266 729.14 -0.90762 726.854M1627.64 719.438C1642.84 716.194 1664.79 717.517 1673.52 715.683C1682.24 713.842 1677.74 708.831 1667.79 706.646C1657.84 704.461 1642.46 705.102 1630.63 708.024C1618.82 710.946 1610.56 716.155 1606.25 719.308C1601.94 722.46 1601.56 723.544 1605.96 718.114C1610.37 712.679 1619.56 700.724 1629.03 693.444C1638.5 686.17 1648.25 683.571 1653.6 681.076C1658.94 678.576 1659.88 676.185 1655.19 675.746C1650.5 675.302 1640.18 676.816 1631.65 681.488C1623.11 686.154 1616.36 693.973 1611.49 700.607C1606.62 707.241 1603.62 712.672 1603.05 707.021C1602.48 701.357 1604.34 684.611 1602.82 667.313C1601.31 650.022 1596.41 632.179 1588.79 602.476C1581.15 572.774 1570.8 531.214 1569.73 495.433C1568.67 459.647 1576.9 429.636 1591.89 413.331C1606.89 397.032 1628.66 394.445 1649.59 405.449C1670.52 416.459 1690.63 441.059 1704.82 467.833C1719.01 494.602 1727.29 523.546 1736.13 564.931C1744.97 606.321 1754.35 660.159 1762.35 685.62C1770.35 711.081 1776.96 708.16 1781.58 707.243C1786.2 706.332 1788.83 707.419 1838.65 707.909C1888.47 708.387 1824.01 708.276 1921.03 708.157" stroke="black" stroke-width="2" stroke-miterlimit="22.926" stroke-linecap="round" stroke-linejoin="round"/>
<path d="M1525.07 71.8545C1516.15 72.0084 1515.52 72.6646 1516.12 75.1297C1516.72 77.5949 1518.56 81.8734 1519.73 84.5452C1520.91 87.2171 1521.42 88.2868 1522.81 89.6064C1524.2 90.9175 1526.48 92.4826 1528.51 92.6522C1530.53 92.8175 1532.3 91.5871 1533.85 90.4766C1535.4 89.3705 1536.73 88.3842 1538.25 88.8796C1539.76 89.3749 1541.48 91.3518 1543.06 93.4917C1544.64 95.6273 1546.1 97.9302 1546.39 99.9443C1546.67 101.958 1545.79 103.683 1544.49 105.696C1543.2 107.708 1541.49 110.008 1540.93 112.309C1540.36 114.614 1540.93 116.916 1541.5 119.381C1542.08 121.842 1542.65 124.474 1543.69 126.283C1544.74 128.096 1546.26 129.081 1547.81 130.152C1549.36 131.222 1550.94 132.375 1551.64 133.487C1552.34 134.596 1552.15 135.665 1551.74 138.129C1551.33 140.597 1550.7 144.461 1550.2 146.964C1549.69 149.471 1549.31 150.621 1547.42 151.276C1545.51 151.935 1542.1 152.095 1540.14 152.423C1538.18 152.748 1537.67 153.237 1536.73 154.678C1535.78 156.116 1534.39 158.497 1533.56 160.184C1532.74 161.866 1532.49 162.853 1532.53 165.15C1532.56 167.452 1532.88 171.072 1533.01 173.373C1533.14 175.675 1533.08 176.662 1531.65 177.936C1530.23 179.21 1527.45 180.766 1525.42 181.708C1523.4 182.651 1522.13 182.98 1520.71 181.622C1519.28 180.268 1517.7 177.222 1516.62 175.456C1515.55 173.686 1514.98 173.191 1513.62 173.104C1512.25 173.025 1510.1 173.35 1508.39 173.429C1506.68 173.514 1505.42 173.345 1504.44 173.631C1503.46 173.918 1502.76 174.656 1501.56 176.175C1500.36 177.693 1498.66 179.997 1497.39 181.185C1496.13 182.378 1495.31 182.458 1493.53 181.555C1491.76 180.647 1489.04 178.751 1487.65 177.191C1486.25 175.626 1486.19 174.394 1486.34 171.844C1486.5 169.298 1486.87 165.434 1486.59 162.887C1486.3 160.341 1485.35 159.108 1484.43 157.587C1483.51 156.061 1482.63 154.249 1481.86 153.509C1481.1 152.77 1480.47 153.1 1479.08 153.223C1477.69 153.342 1475.54 153.258 1473.92 153.093C1472.31 152.924 1471.23 152.678 1470.44 150.87C1469.65 149.061 1469.14 145.686 1468.44 142.933C1467.74 140.18 1466.85 138.041 1467.07 136.895C1467.29 135.74 1468.62 135.578 1470.27 135.004C1471.91 134.435 1473.88 133.445 1475.39 132.541C1476.91 131.641 1477.98 130.818 1478.42 129.466C1478.87 128.109 1478.68 126.215 1478.87 124.206C1479.05 122.193 1479.62 120.055 1481.04 118.738C1482.46 117.426 1484.74 116.935 1486.36 116.816C1487.97 116.693 1488.92 116.939 1490.5 117.391C1492.08 117.848 1494.3 118.507 1495.63 118.303C1496.95 118.102 1497.4 117.034 1498.12 115.429C1498.85 113.828 1499.86 111.691 1501.31 109.884C1502.77 108.078 1504.66 106.603 1507.16 105.824C1509.66 105.041 1512.76 104.963 1516.47 106.779C1520.17 108.59 1524.47 112.292 1527.14 118.172C1529.8 124.053 1530.82 132.105 1528.67 138.603C1526.53 145.089 1521.22 150.017 1516.19 152.437C1511.16 154.858 1506.42 154.771 1502.55 152.629C1498.69 150.487 1495.72 146.289 1493.78 142.178C1491.85 138.067 1490.96 134.038 1490.58 130.71C1490.19 127.382 1490.32 124.751 1490.79 122.656C1491.26 120.557 1492.08 118.999 1493.16 118.3C1494.23 117.606 1495.56 117.77 1497.21 116.085C1498.85 114.403 1500.81 110.871 1501.12 108.321C1501.44 105.776 1500.1 104.211 1499.09 102.566C1498.08 100.92 1497.38 99.1935 1496.87 98.0852C1496.37 96.9769 1496.05 96.4827 1496.11 94.22C1496.17 91.9573 1496.61 87.9347 1497.21 85.4665C1497.81 83.0025 1498.57 82.1016 1499.45 80.9089C1500.34 79.7162 1501.35 78.2402 1501.06 75.6079C1500.77 72.9756 1499.19 69.1955 1498.21 66.6827C1497.23 64.1785 1496.84 62.9458 1495.7 62.8201C1494.56 62.6944 1492.67 63.68 1490.86 64.0517C1489.06 64.4148 1487.35 64.1682 1485.7 63.2649C1484.06 62.3572 1482.48 60.7927 1481.4 59.6408C1480.32 58.489 1479.76 57.75 1479.09 55.5724C1478.42 53.3905 1477.66 49.7745 1476.93 47.8029C1476.2 45.8271 1475.5 45.5 1473.41 45.2874C1471.33 45.0792 1467.85 44.994 1466.04 45.8981C1464.24 46.7979 1464.12 48.6912 1463.83 50.8291C1463.55 52.9671 1463.11 55.3453 1462.6 56.7875C1462.1 58.221 1461.53 58.7142 1460.36 59.5374C1459.19 60.3563 1457.42 61.5051 1456.22 62.3669C1455.02 63.233 1454.38 63.8077 1452.87 63.5184C1451.35 63.2291 1448.94 62.0717 1447.27 61.4989C1445.59 60.9218 1444.64 60.9208 1443.79 62.4399C1442.93 63.959 1442.17 66.9981 1441.26 69.7107C1440.34 72.4233 1439.27 74.8052 1439.81 76.7766C1440.35 78.7479 1442.51 80.313 1443.9 81.7571C1445.29 83.1926 1445.92 84.5115 1446.18 86.1992C1446.43 87.8826 1446.31 89.9348 1446.18 91.8281C1446.06 93.7172 1445.93 95.4389 1445.27 97.044C1444.61 98.6449 1443.41 100.125 1442.27 101.111C1441.13 102.098 1440.06 102.586 1439.68 103.453C1439.3 104.311 1439.62 105.544 1440.25 107.558C1440.89 109.577 1441.84 112.373 1442.82 114.426C1443.8 116.484 1444.81 117.799 1445.51 118.62C1446.21 119.441 1446.59 119.772 1447.67 118.953C1448.74 118.13 1450.51 116.161 1451.74 115.505C1452.98 114.849 1453.67 115.507 1454.94 116.496C1456.21 117.48 1458.04 118.8 1459.43 120.159C1460.83 121.513 1461.78 122.913 1462.03 121.269C1462.28 119.625 1461.84 114.94 1461.23 111.693C1460.63 108.442 1459.87 106.634 1458.53 104.001C1457.21 101.376 1455.3 97.9175 1454.7 93.2711C1454.09 88.629 1454.78 82.7946 1456.64 78.8507C1458.51 74.9025 1461.54 72.8532 1465.09 72.0755C1468.63 71.2977 1472.68 71.8 1476 73.2376C1479.32 74.6794 1481.92 77.065 1483.7 80.9312C1485.47 84.7973 1486.43 90.1396 1485.92 94.334C1485.42 98.5241 1483.46 101.562 1481.69 103.99C1479.92 106.41 1478.34 108.216 1476.54 109.571C1474.74 110.926 1472.71 111.826 1470.66 111.952C1468.6 112.07 1466.52 111.411 1465.66 111.947C1464.8 112.479 1465.19 114.205 1465.79 118.07C1466.4 121.931 1467.23 127.93 1467.54 130.772C1467.86 133.602 1467.67 133.276 1466.18 133.236C1464.7 133.191 1461.91 133.433 1457.71 133.265C1453.5 133.098 1447.87 132.512 1442.87 132.348C1437.87 132.176 1433.5 132.42 1429.74 132.618" stroke="black" stroke-width="2" stroke-miterlimit="22.926" stroke-linecap="round" stroke-linejoin="round"/>
</svg>
