<svg width="1838" height="959" viewBox="0 0 1838 959" fill="none" xmlns="http://www.w3.org/2000/svg">
<path d="M1421.04 0C1420.28 18.5731 1430.72 214.421 1433.87 232.822C1434.57 236.963 1435.51 241.338 1438.85 244.478C1441.82 247.274 1446.22 248.648 1450.42 249.971C1470.66 256.339 1491.58 264.624 1502.93 279.899C1516.3 297.908 1513.03 320.824 1509.32 341.741C1509.63 342.713 1507.57 343.421 1507.57 343.421C1505.58 351.493 1498.83 366.431 1490.59 371.044C1482.35 375.657 1472.69 378.22 1462.99 380.049C1457.79 381.03 1451.35 381.475 1448.1 377.973C1445.88 375.588 1446.12 372.166 1447.4 369.35C1451.56 360.225 1464.06 355.954 1471.72 348.546C1481.16 339.409 1482.44 326.369 1481.97 314.344C1481.66 306.387 1480.72 298.227 1476.47 291.083C1469.36 279.145 1453.16 271.673 1437.1 271.912C1421.04 272.151 1405.68 279.608 1396.45 290.503C1387.22 301.397 1383.94 315.374 1386.17 328.552C1387.5 336.383 1390.83 344.174 1397.17 350.081C1410.87 362.833 1434.46 363.716 1454.87 361.344C1456.25 361.183 1457.77 361.036 1458.95 361.657C1459.75 362.083 1460.25 362.799 1460.72 363.489C1464.78 369.468 1468.85 375.45 1472.91 381.432C1478.08 385.151 1480.66 389.292 1486.01 393.431C1494.99 385.013 1504.66 381.199 1513.64 372.784C1508.21 369.117 1502.79 365.453 1497.36 361.786C1476.82 381.47 1444.52 392.286 1413.25 389.951C1414.78 396.894 1412.15 399.807 1413.69 406.747C1424.88 407.27 1440.93 405.496 1452.11 406.019C1451.55 400.118 1449.54 391.884 1448.48 390.601C1446.36 388.033 1441.8 388.294 1438.07 388.634C1408.13 391.366 1376.9 379.528 1359.82 358.977C1351.88 364.116 1346.8 367.941 1342.5 375.493C1353.13 383.043 1364.46 389.442 1375.09 396.991C1378.81 392.194 1380.44 391.424 1384.17 386.626C1384.94 385.626 1385.75 384.53 1385.66 383.342C1385.52 381.706 1383.77 380.535 1382.2 379.528C1356.98 363.273 1345.48 333.763 1354.48 308.354C1348.13 307.925 1341.77 307.494 1335.42 307.065C1333.16 306.913 1330.54 306.861 1329 308.244C1327.67 309.429 1327.64 311.227 1327.7 312.843C1327.99 321.583 1328.27 330.326 1328.56 339.066C1337.1 339.647 1345.73 339.311 1354.17 338.068C1347.72 307.347 1357.33 276.988 1388.05 258.979C1389.05 258.392 1390.17 257.682 1390.27 256.667C1390.37 255.66 1389.42 254.817 1388.54 254.119C1385.38 251.602 1382.23 249.086 1379.07 246.569C1377.59 245.387 1375.89 244.13 1373.84 244.119C1372.29 244.11 1370.88 244.829 1369.58 245.539C1359.74 250.952 1350.81 257.515 1343.16 264.975C1348.12 270.583 1353.07 276.189 1358.02 281.797C1369.66 270.791 1389.86 257.619 1406.07 251.792C1422.27 245.965 1441.92 245.209 1457.08 252.724C1457.68 247.351 1457.32 241.907 1456.03 236.618C1455.56 234.671 1454.82 232.58 1452.88 231.421C1451.2 230.42 1448.99 230.34 1446.92 230.323C1435.63 230.228 1424.32 230.895 1413.16 232.321C1412.66 237.142 1412.15 241.965 1411.65 246.785C1429.37 246.589 1447.38 246.422 1464.45 250.368C1481.52 254.314 1497.84 263.014 1505.43 276.281C1512.72 273.301 1521.24 268.481 1519.91 261.838C1519.44 259.491 1517.73 257.452 1515.93 255.597C1509.01 248.444 1500.08 242.638 1490.05 238.767C1484.61 242.114 1480.06 246.437 1476.79 251.352C1499.6 266.96 1513.78 282.855 1514.72 307.356C1520.98 306.599 1527.5 307.408 1533.22 309.642C1534.31 317.865 1535.33 326.521 1531.38 334.12C1527.44 341.721 1516.67 347.565 1507.41 344.476C1510.27 332.719 1512.27 320.815 1513.38 308.854C1525.25 309.283 1538.38 318.845 1551.57 319.593C1545.84 328.103 1547.89 338.603 1550.1 348.175C1551.76 355.379 1553.43 362.586 1555.7 369.675C1557.64 375.732 1560.34 382.079 1566.38 385.859C1572.41 389.638 1582.69 389.258 1586.08 383.653C1588.3 379.957 1586.87 375.465 1584.64 371.775C1582.4 368.085 1579.37 364.642 1578.28 360.613C1571.8 351.672 1574.14 340.731 1578.41 331.735C1581.78 324.609 1586.79 317.335 1595.24 314.252C1599.9 312.555 1605.16 312.323 1610.22 312.771C1620.17 313.651 1630.35 317.565 1635.08 324.865C1638.05 329.44 1638.58 334.859 1638.06 340.035C1637.15 349.009 1632.92 358.074 1624.62 363.892C1611.61 373.011 1590.6 371.703 1577.71 362.474C1575.35 364.985 1572.61 367.257 1569.59 369.221C1568.26 370.087 1566.8 370.915 1565.12 371.11C1562.29 371.441 1559.54 369.81 1558.14 367.746C1556.73 365.681 1556.37 363.253 1556.04 360.898C1549.77 363.017 1544.85 365.793 1540.22 368.879C1543.43 374.403 1546.64 379.925 1549.84 385.45C1550.39 386.393 1551.02 387.406 1552.16 387.849C1553.59 388.404 1555.25 387.88 1556.69 387.357C1559.31 386.405 1561.94 385.453 1564.56 384.501C1565.47 384.173 1566.43 383.808 1566.97 383.121C1568.18 381.579 1566.65 379.618 1565.28 378.174C1554.69 367.052 1550.21 352.1 1553.27 338.166C1554.46 332.774 1557.43 321.943 1545 324.546C1539.08 325.782 1538.91 326.668 1537.7 331.62C1536.73 335.549 1536.21 344.2 1539.03 347.456C1541.86 350.711 1547.62 348.226 1552.14 346.774C1552.5 336.754 1553.02 326.556 1557.09 317.111C1561.15 307.666 1569.34 298.932 1580.77 295.665C1578.93 291.837 1575.35 288.607 1570.9 286.764C1563.34 291.055 1556.34 296.024 1550.08 301.564C1554.7 303.951 1558.34 307.609 1560.29 311.822C1571.5 294.391 1597.64 284.564 1620.85 289.05C1620.73 285.228 1620.61 281.406 1620.49 277.584C1610.48 276.867 1600.39 276.81 1590.37 277.411C1591.58 281.647 1591.92 286.053 1591.36 290.382C1603.46 289.041 1615.87 287.713 1627.77 289.993C1639.66 292.274 1651.11 298.969 1654.28 308.733C1657.7 305.417 1661.12 302.104 1664.55 298.788C1662.33 294.969 1660.55 290.937 1657.53 287.517C1654.51 284.098 1649.92 281.294 1644.81 281.305C1639.69 281.317 1634.56 285.047 1635.23 289.246C1635.82 292.982 1640.18 295.328 1643.59 297.819C1647.61 300.747 1650.71 304.451 1653.21 308.368C1660.56 319.878 1662.87 333.544 1659.62 346.285C1666.82 347.893 1674.14 348.428 1677.3 344.309C1678.86 342.273 1678.81 339.69 1678.63 337.283C1678.3 332.751 1677.73 328.23 1676.93 323.74C1671.98 323.605 1667.02 323.875 1662.14 324.54C1665.82 344.528 1658.79 365.704 1643.29 381.32C1643.61 386.442 1652.14 388.772 1657.67 386.462C1663.2 384.153 1666.21 379.192 1668.86 374.553C1670.22 372.169 1671.58 369.345 1670.1 367.009C1667.74 363.265 1660.33 364.01 1657.29 360.613C1647.57 381.079 1620.23 394.742 1593.85 392.324C1593.87 395.562 1593.88 398.803 1593.9 402.042C1593.9 403.048 1593.93 404.121 1594.6 404.964C1595.58 406.197 1597.58 406.514 1599.35 406.658C1607.81 407.348 1616.43 406.669 1624.58 404.67C1623.96 399.197 1624.19 393.655 1625.28 388.231C1614.39 389.313 1603.5 390.397 1592.61 391.478C1590.91 391.648 1589.11 391.855 1587.84 392.787C1586.34 393.877 1585.96 395.657 1585.68 397.291C1582.76 414.101 1579.84 430.908 1576.91 447.718C1571 466.291 1545.61 479.788 1545.63 498.801C1545.64 505.12 1548.55 511.148 1550.38 517.279C1552.5 524.394 1553.18 531.74 1553.85 539.045C1555.2 553.813 1556.56 568.578 1557.92 583.346C1564.8 592.607 1578.78 599.728 1583.13 611.033C1586.7 620.32 1582.99 630.403 1578.3 639.341C1573.62 648.283 1567.84 657.17 1567.16 666.899C1566.9 670.578 1567.11 674.831 1563.76 677.258C1561.29 679.05 1557.7 679.168 1554.41 679.194C1538.18 679.321 1521.96 679.447 1505.73 679.574C1527.24 678.952 1548.78 678.972 1570.28 679.628C1572.49 691.581 1573.66 703.956 1573.56 716.323C1573.55 717.459 1573.52 718.641 1572.89 719.653C1572.22 720.723 1570.98 721.462 1569.7 722.029C1564.38 724.384 1558.08 724.439 1552.05 724.439C1534.15 724.439 1516.26 724.439 1498.36 724.439C1498.57 717.2 1498.78 709.95 1498.2 702.725C1497.28 691.282 1494.41 679.985 1493.67 668.53C1492.54 660.698 1491.87 649.522 1498.56 640.725C1499.39 639.632 1500.33 638.574 1500.81 637.346C1502.17 633.863 1499.48 630.308 1497.99 626.86C1493.11 615.574 1501.17 603.51 1502.56 591.577C1503.03 587.56 1497.93 578.063 1493.47 576.427C1488.24 574.505 1489.59 623.828 1489.58 637.535C1489.56 658.976 1483.69 668.4 1491.64 703.217C1491.95 704.56 1492.03 706.004 1493.02 707.1C1495.12 709.441 1499.34 709.093 1502.84 709.481C1507.87 710.042 1512.49 712.751 1514.8 716.501C1515.46 717.568 1515.92 718.92 1515.11 719.915C1514.47 720.697 1513.27 720.985 1512.16 721.201C1507.08 722.198 1501.91 722.895 1496.71 723.289C1495.41 723.389 1493.98 723.441 1492.92 722.802C1491.6 722.003 1491.38 720.464 1491.32 719.11C1491.16 715.262 1491.41 711.402 1492.05 707.589C1497.59 709.418 1502.96 709.274 1507.54 707.6C1506.05 703.254 1506.33 698.644 1506.65 694.135C1508.11 673.255 1510.65 651.116 1514.18 630.406C1517.23 612.477 1527.21 591.678 1520.07 586.133C1516.83 583.611 1525.61 588.186 1556.92 612.497C1559.7 614.66 1566.76 617.961 1566.91 614.804C1566.99 613.222 1563.12 614.122 1561.85 615.304C1560.57 616.486 1560.19 618.128 1559.84 619.684C1556.78 633.598 1553.72 647.509 1550.65 661.42C1550.45 662.361 1550.26 663.419 1550.93 664.201C1552.72 666.281 1557.36 663.727 1559.61 665.473C1558.89 668.501 1563.79 670.229 1567.51 670.083C1571.23 669.933 1579.52 668.987 1578 671.806C1575.34 676.744 1564.08 681.106 1555.34 681.397C1553.58 681.454 1551.57 681.282 1550.53 680.106C1549.76 679.228 1549.78 678.052 1549.82 676.965C1550 673.031 1550.18 669.094 1550.36 665.159C1556.26 666.839 1560.95 667.733 1565.64 668.625C1566.75 668.838 1568 669.03 1568.97 668.527C1569.9 668.041 1570.24 667.069 1570.51 666.183C1574.01 654.665 1577.51 643.144 1581.01 631.625C1583.03 624.962 1585.07 618.071 1583.74 611.289C1582.69 605.94 1579.6 601.034 1576.46 596.282C1569.58 585.889 1562.2 575.719 1554.35 565.806C1544.26 565.265 1536.03 577.773 1527.04 573.936C1520.45 571.126 1522.36 563.01 1525.23 557.35C1528.57 550.784 1550.65 526.491 1535.22 537.653C1527.44 543.278 1518.53 554.284 1508.91 551.184C1487.66 544.336 1550.93 487.222 1528.49 496.978C1521.29 500.104 1513.73 505.396 1509.99 511.372C1508.28 514.107 1507.01 517.176 1504.21 519.203C1499.52 522.6 1492.42 521.855 1486.3 520.909C1482.72 520.868 1479.21 520.46 1475.71 520.049C1474.47 519.905 1473.13 519.767 1472 520.224C1470.86 520.682 1470.15 521.981 1470.92 522.807C1479.82 519.632 1486.61 512.669 1488.47 504.789C1490.38 510.006 1492.22 515.243 1493.99 520.495C1496.05 526.646 1498.03 532.904 1498.05 539.289C1498.1 552.441 1489.91 564.693 1488.17 577.764C1500.08 583.43 1512.67 584.129 1524.19 582.023C1535.72 579.915 1546.33 575.204 1556.14 569.766C1556.92 569.337 1557.71 568.877 1558.15 568.198C1558.84 567.117 1558.44 565.797 1558.05 564.615C1553.31 550.278 1552.14 535.289 1552.16 520.426C1552.16 512.752 1552.48 505.022 1550.88 497.461C1554.64 485.983 1561.54 475.75 1568.45 465.515C1572.63 459.308 1576.84 453.061 1579.68 446.352C1582.81 438.963 1584.21 431.164 1585.44 423.402C1586.39 417.356 1587.25 411.184 1585.85 405.199C1585.55 403.946 1585.03 402.568 1583.68 401.955C1582.45 401.397 1580.94 401.659 1579.56 401.814C1576.4 402.168 1572.98 401.846 1570.43 400.259C1567.88 398.674 1566.55 395.608 1567.99 393.256C1570.73 393.394 1573.36 394.607 1574.94 396.459C1577.56 391.881 1580.8 387.538 1584.56 383.54C1586.3 383.388 1587.46 385.266 1586.91 386.649C1586.36 388.033 1584.81 388.939 1583.35 389.744C1585.17 386.822 1588.47 384.561 1592.28 383.635C1594.75 389.709 1592.5 396.914 1586.78 401.233C1582.12 399.551 1576.67 399.419 1571.9 400.868C1568.44 413.871 1565.31 426.372 1562.19 438.877C1561.94 439.872 1561.7 440.942 1562.17 441.88C1562.65 442.817 1564.15 443.461 1565.15 442.866C1566.14 442.271 1565.2 440.554 1564.12 441.025C1552.84 452.334 1541.56 463.639 1530.28 474.948C1529.03 476.204 1527.53 477.565 1525.56 477.611C1523.85 477.651 1522.35 476.659 1520.66 476.412C1514.2 475.465 1511.66 484.812 1505.12 485.206C1502.23 485.382 1499.6 483.57 1498.37 481.399C1497.13 479.23 1497 476.757 1496.89 474.361C1496.43 464.41 1494 457.715 1499.34 448.794C1506.94 436.102 1524.21 445.426 1526.29 448.618C1529.03 452.82 1529.26 457.784 1530.31 462.477C1531.37 467.174 1533.79 472.184 1538.98 474.258C1539.79 474.58 1540.73 474.89 1541.07 475.58C1541.37 476.19 1541.08 476.877 1540.76 477.479C1539.41 480.001 1537.29 482.428 1534.18 483.403C1531.06 484.378 1526.9 483.32 1525.86 480.703C1527.09 482.583 1529.05 484.128 1531.39 485.042C1528.05 488.462 1523.52 491.073 1518.5 492.477C1515.5 493.314 1512.11 493.711 1509.21 492.664C1506.3 491.617 1504.21 488.744 1505.34 486.293C1508.22 487.369 1506.94 491.424 1503.97 492.304C1501 493.181 1497.77 492.025 1494.92 490.892C1495.68 487.547 1496.45 484.203 1497.21 480.858C1489.32 481.286 1484.22 485.523 1479.32 489.638C1467.68 499.428 1455.48 510.107 1452.67 523.65C1452.31 525.398 1452.19 527.388 1453.59 528.734C1454.84 529.951 1456.93 530.253 1458.85 530.445C1467.06 531.277 1475.35 531.55 1483.61 531.265C1483.77 672.26 1481.5 813.551 1479.24 954.839L1 954.195L1837 958M1484.26 954.195C1484.13 935.777 1483.99 917.36 1483.85 898.942C1513.25 898.709 1542.64 898.476 1572.04 898.24C1568.9 878.963 1567.48 859.492 1567.79 840.042C1538.72 843.401 1509.42 845.383 1480.07 845.966C1478.31 824.247 1478.16 802.438 1479.61 780.702C1506.44 781.214 1533.26 781.723 1560.09 782.235C1562.06 782.272 1564.18 782.272 1565.78 781.326C1568.2 779.899 1568.39 777.032 1568.34 774.573C1568 757.314 1567.66 740.055 1567.32 722.797C1539.68 722.178 1511.97 723.734 1484.69 727.433C1514.2 726.303 1543.71 725.172 1573.22 724.042C1572.39 800.839 1571.56 877.637 1576.22 958L1484.26 954.195Z" stroke="black" stroke-width="1.5" stroke-miterlimit="10" stroke-linecap="round" stroke-linejoin="round"/>
</svg>
